<svg xmlns="http://www.w3.org/2000/svg" xmlns:xlink="http://www.w3.org/1999/xlink" version="1.1" x="0px" y="0px" viewBox="0 0 100 125" style="enable-background:new 0 0 100 100;" xml:space="preserve"><g><path d="M80,60.7c-8.2,0-14.8-6.6-14.8-14.8S71.9,31.2,80,31.2S94.8,37.8,94.8,46S88.2,60.7,80,60.7z M80,36c-5.5,0-10,4.5-10,10   c0,5.5,4.5,10,10,10c5.5,0,10-4.5,10-10C90,40.5,85.5,36,80,36z"/><path d="M75.9,63.9h-4.5c-4.5,0-8.8-2.2-11.4-5.9l-4.3-5.9c4.2-5.6-14.9-16.7-6.6-22.7c4-2.9,7.9,2.8,11,3.7c1.7,0.5,6,0.6,7.1-1   c1.9-2.4-1.4-4-2.5-6c0,0,0-0.1,0-0.1c-0.5-3.6-2.6-6.3-5.2-7.4c-1.4-0.6-4.4-9.4-4.7-11.9c-2.1,1.8-5.1,4.6-4.1,7.6   c0.2,0.4,0.4,0.9,0.6,1.3c0.2,0.5-0.1,1.1-0.6,1.4c-1,0.5-2.1,0.6-3.3,0.5c-2.9,0.6-6.8,0.3-8.7,0.8c-12.7,3.5-17,15.1-17.4,27.4   c-2.3-1.5-17.5-5.9-16.1-2.4c0.6,1.3,7.6,3.8,8.6,4.1c3.9,1.5,7,3.9,9.4,7.4c4.2,6.2,0.7,9.3,2.3,14.5c1.2,3.9,7.2,10.7,11.4,10.3   c3.4-0.3,0.1-5.5-1.6-7.7c-4.6-5.9,1.2-9.2,1.2-16.2c0-0.5,0-1,0-1.6l9.2,13.1c4.1,5.7,6.3,12.5,6.3,19.5V95h4.8v-8.2   c0-8.1-2.5-15.7-7.1-22.3L36.5,46.1l-4.5-6.4c-1-1.4-0.8-3.4,0.6-4.5c0.7-0.6,1.7-0.9,2.6-0.8c0.9,0.1,1.8,0.6,2.3,1.4l2.8,3.8   L56,60.8c3.5,4.9,9.3,7.9,15.3,7.9h4.5c7.8,0,14.2,6.4,14.2,14.2V95h4.8V82.9C94.8,72.4,86.3,63.9,75.9,63.9z"/></g><text x="0" y="115" fill="#000000" font-size="5px" font-weight="bold" font-family="'Helvetica Neue', Helvetica, Arial-Unicode, Arial, Sans-serif">Created by Dan Hetteix</text><text x="0" y="120" fill="#000000" font-size="5px" font-weight="bold" font-family="'Helvetica Neue', Helvetica, Arial-Unicode, Arial, Sans-serif">from the Noun Project</text></svg>